HIERARCHY
ROOT joint_Root
{
	OFFSET 0.0 0.0 0.0
	CHANNELS 6 Xposition Yposition Zposition Zrotation Xrotation Yrotation 
	JOINT Hips
	{
		OFFSET 4.5925 91.4895 -427.239
		CHANNELS 6 Xposition Yposition Zposition Zrotation Xrotation Yrotation 
		JOINT Spine
		{
			OFFSET 15.7357 0.0 0.0
			CHANNELS 6 Xposition Yposition Zposition Zrotation Xrotation Yrotation 
			JOINT Chest
			{
				OFFSET 8.98455 -0.406207 0.0
				CHANNELS 6 Xposition Yposition Zposition Zrotation Xrotation Yrotation 
				JOINT Neck
				{
					OFFSET 16.3773 0.0 0.0
					CHANNELS 6 Xposition Yposition Zposition Zrotation Xrotation Yrotation 
					JOINT Head
					{
						OFFSET 6.45672 0.0 0.0
						CHANNELS 6 Xposition Yposition Zposition Zrotation Xrotation Yrotation 
						End Site
						{
							OFFSET 0.0 0.0 0.0
						}
					}
				}
				JOINT Shoulder_L
				{
					OFFSET 12.9942 -0.242716 4.98039
					CHANNELS 6 Xposition Yposition Zposition Zrotation Xrotation Yrotation 
					JOINT UpperArm_L
					{
						OFFSET 5.34809 0.0 0.0
						CHANNELS 6 Xposition Yposition Zposition Zrotation Xrotation Yrotation 
						JOINT LowerArm_L
						{
							OFFSET 24.3286 1.87007e-05 0.0
							CHANNELS 6 Xposition Yposition Zposition Zrotation Xrotation Yrotation 
							JOINT Hand_L
							{
								OFFSET 22.2916 0.0 0.0
								CHANNELS 6 Xposition Yposition Zposition Zrotation Xrotation Yrotation 
								End Site
								{
									OFFSET 0.0 0.0 0.0
								}
							}
						}
					}
				}
				JOINT Shoulder_R
				{
					OFFSET 12.9945 -0.242716 -4.98039
					CHANNELS 6 Xposition Yposition Zposition Zrotation Xrotation Yrotation 
					JOINT UpperArm_R
					{
						OFFSET -5.34813 0.0 0.0
						CHANNELS 6 Xposition Yposition Zposition Zrotation Xrotation Yrotation 
						JOINT LowerArm_R
						{
							OFFSET -24.3289 0.000322201 0.0
							CHANNELS 6 Xposition Yposition Zposition Zrotation Xrotation Yrotation 
							JOINT Hand_R
							{
								OFFSET -22.2915 -0.000108084 0.0
								CHANNELS 6 Xposition Yposition Zposition Zrotation Xrotation Yrotation 
								End Site
								{
									OFFSET 0.0 0.0 0.0
								}
							}
						}
					}
				}
			}
		}
		JOINT UpperLeg_L
		{
			OFFSET -2.19248 -6.46944 0.0
			CHANNELS 6 Xposition Yposition Zposition Zrotation Xrotation Yrotation 
			JOINT LowerLeg_L
			{
				OFFSET 39.0811 0.0 -1.23785e-05
				CHANNELS 6 Xposition Yposition Zposition Zrotation Xrotation Yrotation 
				JOINT Foot_L
				{
					OFFSET 40.9854 0.0 -1.26872e-05
					CHANNELS 6 Xposition Yposition Zposition Zrotation Xrotation Yrotation 
					JOINT Toes_L
					{
						OFFSET 11.7543 0.0 0.0
						CHANNELS 6 Xposition Yposition Zposition Zrotation Xrotation Yrotation 
						End Site
						{
							OFFSET 0.0 0.0 0.0
						}
					}
				}
			}
		}
		JOINT UpperLeg_R
		{
			OFFSET -2.19251 6.46944 0.0
			CHANNELS 6 Xposition Yposition Zposition Zrotation Xrotation Yrotation 
			JOINT LowerLeg_R
			{
				OFFSET -39.0811 -0.00228153 -0.0401928
				CHANNELS 6 Xposition Yposition Zposition Zrotation Xrotation Yrotation 
				JOINT Foot_R
				{
					OFFSET -40.9854 0.0 0.0
					CHANNELS 6 Xposition Yposition Zposition Zrotation Xrotation Yrotation 
					JOINT Toes_R
					{
						OFFSET -11.7543 0.0 0.0
						CHANNELS 6 Xposition Yposition Zposition Zrotation Xrotation Yrotation 
						End Site
						{
							OFFSET 0.0 0.0 0.0
						}
					}
				}
			}
		}
	}
}
MOTION
Frames:	6
Frame Time:	0.0333333
0.000000 0.000000 0.000000 0.000000 0.000000 -0.000000 1.780000 88.024800 -0.030749 89.346400 -8.301850 6.756310 15.735700 0.000005 -0.000001 81.548400 82.437200 -81.588400 8.984550 -0.406207 -0.000000 7.198550 -2.214880 0.059373 16.377300 -0.000001 -0.000001 -1.507590 0.643430 1.166980 6.456720 -0.000001 -0.000000 -8.366320 5.175010 -1.907400 12.994200 -0.242716 4.980390 -91.697500 5.527400 -72.900800 5.348090 -0.000007 -0.000001 -57.201600 42.485300 -15.867100 24.328600 0.000019 0.000005 6.424800 11.134200 -30.245600 22.291600 -0.000001 0.000005 10.670200 5.233260 1.875070 12.994500 -0.242716 -4.980390 88.253500 9.806400 -79.850300 -5.348130 -0.000001 -0.000004 -65.142100 3.787730 -24.170100 -24.328900 0.000322 -0.000009 -1.524200 -7.838450 -11.028900 -22.291500 -0.000108 -0.000004 4.899000 5.275340 0.768713 -2.192480 -6.469440 -0.000000 -177.519000 -12.277600 -9.996970 39.081100 -0.000007 -0.000012 -0.353271 0.371241 43.579900 40.985400 -0.000006 -0.000013 0.444902 -0.770233 -76.899700 11.754300 -0.000000 0.000003 -0.000340 -0.002890 -16.684800 -2.192510 6.469440 -0.000001 175.938000 12.746800 168.641000 -39.081100 -0.002282 -0.040193 0.037065 -0.034960 44.031000 -40.985400 0.000008 0.000006 6.510590 10.136300 -76.205400 -11.754300 -0.000006 -0.000006 -0.002850 -0.038888 -18.154600
0.000000 0.000000 0.000000 0.000000 0.000000 -0.000000 1.523810 88.217900 0.317078 88.954900 -8.241950 6.540650 15.735700 0.000005 -0.000001 83.289600 83.154700 -83.892700 8.984550 -0.406207 -0.000000 5.824450 -1.585470 -1.124070 16.377300 -0.000001 -0.000001 -0.910324 1.238390 0.760824 6.456720 -0.000001 -0.000000 -7.863080 5.195220 -1.206610 12.994200 -0.242716 4.980390 -91.959900 5.956050 -71.747700 5.348090 -0.000007 -0.000001 -57.210600 40.006800 -15.990900 24.328600 0.000019 0.000005 6.434010 12.602100 -27.342500 22.291600 -0.000001 0.000005 11.957500 5.241060 1.662490 12.994500 -0.242716 -4.980390 88.247400 9.289820 -79.266600 -5.348130 -0.000001 -0.000004 -61.029000 -5.121210 -26.480400 -24.328900 0.000322 -0.000009 -1.120670 -7.655570 -8.345940 -22.291500 -0.000108 -0.000004 4.170100 5.194460 2.845940 -2.192480 -6.469440 -0.000000 -176.581000 -13.774800 -9.448650 39.081100 -0.000007 -0.000012 -0.336896 0.362778 42.882200 40.985400 -0.000006 -0.000013 0.811633 0.846820 -76.798400 11.754300 -0.000000 0.000003 -0.000356 -0.003005 -16.688800 -2.192510 6.469440 -0.000001 176.277000 13.551400 169.223000 -39.081100 -0.002282 -0.040193 0.034851 -0.033683 43.155900 -40.985400 0.000008 0.000006 6.688420 10.883500 -75.900800 -11.754300 -0.000006 -0.000006 -0.002688 -0.037022 -18.078600
0.000000 0.000000 0.000000 0.000000 0.000000 -0.000000 1.189680 89.136400 1.031770 88.655700 -6.599100 6.054690 15.735700 0.000005 -0.000001 81.135900 84.080100 -82.497600 8.984550 -0.406207 -0.000000 3.914270 -1.776070 -2.659650 16.377300 -0.000001 -0.000001 0.052882 1.212000 0.370845 6.456720 -0.000001 -0.000000 -6.781060 4.250170 0.394742 12.994200 -0.242716 4.980390 -91.627000 4.727650 -70.983000 5.348090 -0.000007 -0.000001 -61.807800 33.520600 -13.519200 24.328600 0.000019 0.000005 7.517210 16.301300 -25.179100 22.291600 -0.000001 0.000005 13.975000 5.154940 3.802390 12.994500 -0.242716 -4.980390 88.510400 7.496640 -78.726900 -5.348130 -0.000001 -0.000004 -57.595600 -16.769100 -29.573400 -24.328900 0.000322 -0.000009 -0.929746 -8.163600 -6.515580 -22.291500 -0.000108 -0.000004 6.201950 5.048160 6.231380 -2.192480 -6.469440 -0.000000 -176.410000 -11.717300 -7.712020 39.081100 -0.000007 -0.000012 -0.301124 0.370898 39.073000 40.985400 -0.000006 -0.000013 0.391876 0.592433 -75.248300 11.754300 -0.000000 0.000003 -0.000351 -0.002963 -16.687300 -2.192510 6.469440 -0.000001 176.584000 14.788300 171.418000 -39.081100 -0.002282 -0.040193 0.030439 -0.033139 39.335400 -40.985400 0.000008 0.000006 6.220310 10.804400 -74.113800 -11.754300 -0.000006 -0.000006 -0.003058 -0.041260 -18.251100
0.000000 0.000000 0.000000 0.000000 0.000000 -0.000000 0.878554 90.159000 1.810340 88.489800 -4.758850 5.247240 15.735700 0.000005 -0.000001 76.254000 85.077800 -78.339500 8.984550 -0.406207 -0.000000 1.760690 -2.228600 -4.133080 16.377300 -0.000001 -0.000001 1.368640 0.541412 0.203653 6.456720 -0.000001 -0.000000 -5.940830 3.046930 1.849670 12.994200 -0.242716 4.980390 -91.271400 3.590150 -70.483900 5.348090 -0.000007 -0.000001 -64.231800 29.819900 -11.771300 24.328600 0.000019 0.000005 5.780420 13.956700 -22.761500 22.291600 -0.000001 0.000005 15.910100 5.091500 5.312200 12.994500 -0.242716 -4.980390 88.858300 5.375210 -77.986700 -5.348130 -0.000001 -0.000004 -54.123100 -28.748500 -35.698500 -24.328900 0.000322 -0.000009 -1.394570 -13.383900 -5.995420 -22.291500 -0.000108 -0.000004 11.169200 4.918500 9.005650 -2.192480 -6.469440 -0.000000 -176.496000 -9.318250 -5.811230 39.081100 -0.000007 -0.000012 -0.256427 0.376474 34.260300 40.985400 -0.000006 -0.000013 -0.036689 0.111892 -73.238900 11.754300 -0.000000 0.000003 -0.000282 -0.002473 -16.669900 -2.192510 6.469440 -0.000001 176.856000 16.157300 173.654000 -39.081100 -0.002282 -0.040193 0.024474 -0.030529 34.754800 -40.985400 0.000008 0.000006 5.740910 10.631900 -71.819400 -11.754300 -0.000006 -0.000006 -0.003855 -0.049920 -18.603700
0.000000 0.000000 0.000000 0.000000 0.000000 -0.000000 0.841457 90.751400 2.248800 88.222700 -3.681270 4.188960 15.735700 0.000005 -0.000001 72.783000 85.993000 -75.127900 8.984550 -0.406207 -0.000000 -0.151508 -2.209600 -4.690150 16.377300 -0.000001 -0.000001 2.417800 -0.246445 0.129604 6.456720 -0.000001 -0.000000 -5.671970 2.214450 2.746120 12.994200 -0.242716 4.980390 -91.220500 3.377850 -70.120300 5.348090 -0.000007 -0.000001 -64.358500 29.673400 -11.092300 24.328600 0.000019 0.000005 3.751900 10.001300 -20.684600 22.291600 -0.000001 0.000005 15.954100 5.133030 4.341180 12.994500 -0.242716 -4.980390 89.489900 2.333950 -77.670200 -5.348130 -0.000001 -0.000004 -52.345000 -41.020000 -45.012800 -24.328900 0.000322 -0.000009 -3.745840 -23.185000 -9.421500 -22.291500 -0.000108 -0.000004 14.875800 5.032580 6.641380 -2.192480 -6.469440 -0.000000 -176.312000 -9.118760 -5.200510 39.081100 -0.000007 -0.000012 -0.219976 0.362133 31.276700 40.985400 -0.000006 -0.000013 0.136631 0.914214 -71.954100 11.754300 -0.000000 0.000003 -0.000244 -0.002186 -16.659600 -2.192510 6.469440 -0.000001 176.912000 18.150700 174.442000 -39.081100 -0.002282 -0.040193 0.014360 -0.017771 31.901500 -40.985400 0.000008 0.000006 5.040490 12.233300 -69.880800 -11.754300 -0.000006 -0.000006 -0.167042 -0.242607 -19.138000
0.000000 0.000000 0.000000 0.000000 0.000000 -0.000000 0.946235 90.844200 2.421500 88.376000 -3.705840 3.950880 15.735700 0.000005 -0.000001 74.879600 86.382900 -77.347900 8.984550 -0.406207 -0.000000 -0.814038 -1.701940 -4.946760 16.377300 -0.000001 -0.000001 2.512170 -0.731230 0.739143 6.456720 -0.000001 -0.000000 -5.707030 1.862330 3.162160 12.994200 -0.242716 4.980390 -91.338000 3.685400 -70.029800 5.348090 -0.000007 -0.000001 -63.244200 30.194300 -10.838100 24.328600 0.000019 0.000005 4.018240 10.816100 -20.521700 22.291600 -0.000001 0.000005 13.992100 5.156120 3.793190 12.994500 -0.242716 -4.980390 90.407700 -1.867140 -77.689800 -5.348130 -0.000001 -0.000004 -50.019000 -50.027500 -54.420700 -24.328900 0.000322 -0.000009 -9.171800 -29.706200 -18.038100 -22.291500 -0.000108 -0.000004 16.478100 5.210090 2.475000 -2.192480 -6.469440 -0.000000 -176.293000 -10.684100 -4.941040 39.081100 -0.000007 -0.000012 -0.206259 0.348779 30.599300 40.985400 -0.000006 -0.000013 0.580592 2.334650 -71.752800 11.754300 -0.000000 0.000003 -0.000232 -0.002098 -16.656400 -2.192510 6.469440 -0.000001 176.299000 19.541200 174.652000 -39.081100 -0.002282 -0.040193 0.008876 -0.009136 31.403200 -40.985400 0.000008 0.000006 4.813500 14.095600 -69.600100 -11.754300 -0.000006 -0.000006 -0.005947 -0.070352 -19.436300
